<mxfile modified="2023-06-05T20:07:26.378Z" host="app.diagrams.net" agent="Mozilla/5.0 (Windows NT 10.0; Win64; x64) AppleWebKit/537.36 (KHTML, like Gecko) Chrome/114.0.0.0 Safari/537.36 Edg/114.0.1823.37" etag="nXkchVipsnXM_cHIwcQG" version="21.3.3" type="github">
  <diagram id="l8hXMBHkgcEJcSW0mbfh" name="Page-1">
    <mxGraphModel dx="1379" dy="756" grid="0" gridSize="10" guides="1" tooltips="1" connect="1" arrows="1" fold="1" page="1" pageScale="1" pageWidth="1169" pageHeight="827" background="#ffffff" math="0" shadow="0">
      <root>
        <mxCell id="0" />
        <mxCell id="1" parent="0" />
        <mxCell id="FTFHMwlyKDDVJCZQZc6m-2" style="edgeStyle=orthogonalEdgeStyle;rounded=0;orthogonalLoop=1;jettySize=auto;html=1;exitX=0.55;exitY=0.95;exitDx=0;exitDy=0;exitPerimeter=0;labelBackgroundColor=#FFFFFF;fontColor=#000000;" edge="1" parent="1" source="3LhNc7dOdSS2pUfY3CC5-1" target="FTFHMwlyKDDVJCZQZc6m-1">
          <mxGeometry relative="1" as="geometry" />
        </mxCell>
        <mxCell id="3LhNc7dOdSS2pUfY3CC5-1" value="INTERNET" style="ellipse;shape=cloud;whiteSpace=wrap;html=1;labelBackgroundColor=#000000;fontColor=#FFFFFF;" parent="1" vertex="1">
          <mxGeometry x="510" y="50" width="149" height="90" as="geometry" />
        </mxCell>
        <mxCell id="FTFHMwlyKDDVJCZQZc6m-5" value="" style="edgeStyle=orthogonalEdgeStyle;rounded=0;orthogonalLoop=1;jettySize=auto;html=1;labelBackgroundColor=#FFFFFF;fontColor=#000000;" edge="1" parent="1" source="FTFHMwlyKDDVJCZQZc6m-1" target="FTFHMwlyKDDVJCZQZc6m-4">
          <mxGeometry relative="1" as="geometry" />
        </mxCell>
        <mxCell id="FTFHMwlyKDDVJCZQZc6m-1" value="ISP: Unite Private Networks" style="image;html=1;image=img/lib/clip_art/networking/Router_Icon_128x128.png;labelBackgroundColor=#FFFFFF;fontColor=#000000;" vertex="1" parent="1">
          <mxGeometry x="640" y="240" width="80" height="70" as="geometry" />
        </mxCell>
        <mxCell id="FTFHMwlyKDDVJCZQZc6m-7" style="edgeStyle=orthogonalEdgeStyle;rounded=0;orthogonalLoop=1;jettySize=auto;html=1;exitX=0;exitY=0.75;exitDx=0;exitDy=0;entryX=0.5;entryY=0;entryDx=0;entryDy=0;labelBackgroundColor=#FFFFFF;fontColor=#000000;" edge="1" parent="1" source="FTFHMwlyKDDVJCZQZc6m-4" target="FTFHMwlyKDDVJCZQZc6m-6">
          <mxGeometry relative="1" as="geometry" />
        </mxCell>
        <mxCell id="FTFHMwlyKDDVJCZQZc6m-4" value="Sonicwall TZ400" style="image;html=1;image=img/lib/clip_art/networking/Firewall_02_128x128.png;labelBackgroundColor=#FFFFFF;fontColor=#000000;" vertex="1" parent="1">
          <mxGeometry x="640" y="400" width="80" height="80" as="geometry" />
        </mxCell>
        <mxCell id="FTFHMwlyKDDVJCZQZc6m-11" style="edgeStyle=orthogonalEdgeStyle;rounded=0;orthogonalLoop=1;jettySize=auto;html=1;exitX=0;exitY=0.5;exitDx=0;exitDy=0;entryX=0.5;entryY=1;entryDx=0;entryDy=0;labelBackgroundColor=#FFFFFF;fontColor=#000000;" edge="1" parent="1" source="FTFHMwlyKDDVJCZQZc6m-6" target="FTFHMwlyKDDVJCZQZc6m-10">
          <mxGeometry relative="1" as="geometry" />
        </mxCell>
        <mxCell id="FTFHMwlyKDDVJCZQZc6m-12" style="edgeStyle=orthogonalEdgeStyle;rounded=0;orthogonalLoop=1;jettySize=auto;html=1;exitX=0;exitY=1;exitDx=0;exitDy=0;labelBackgroundColor=#FFFFFF;fontColor=#000000;" edge="1" parent="1" source="FTFHMwlyKDDVJCZQZc6m-6" target="FTFHMwlyKDDVJCZQZc6m-9">
          <mxGeometry relative="1" as="geometry" />
        </mxCell>
        <mxCell id="FTFHMwlyKDDVJCZQZc6m-15" style="edgeStyle=orthogonalEdgeStyle;rounded=0;orthogonalLoop=1;jettySize=auto;html=1;exitX=0;exitY=0;exitDx=0;exitDy=0;entryX=0.25;entryY=1;entryDx=0;entryDy=0;labelBackgroundColor=#FFFFFF;fontColor=#000000;" edge="1" parent="1" source="FTFHMwlyKDDVJCZQZc6m-6" target="FTFHMwlyKDDVJCZQZc6m-14">
          <mxGeometry relative="1" as="geometry" />
        </mxCell>
        <mxCell id="FTFHMwlyKDDVJCZQZc6m-6" value="" style="image;html=1;image=img/lib/clip_art/networking/Switch_128x128.png;labelBackgroundColor=#FFFFFF;fontColor=#000000;" vertex="1" parent="1">
          <mxGeometry x="560" y="530" width="65" height="90" as="geometry" />
        </mxCell>
        <mxCell id="FTFHMwlyKDDVJCZQZc6m-8" value="" style="shape=image;verticalLabelPosition=bottom;labelBackgroundColor=#FFFFFF;verticalAlign=top;aspect=fixed;imageAspect=0;image=data:image/png,iVBORw0KGgoAAAANSUhEUgAAAQ4AAACjCAYAAAB7RPAhAAAAAXNSR0IArs4c6QAAAARnQU1BAACxjwv8YQUAAAAJcEhZcwAADsMAAA7DAcdvqGQAACMkSURBVHhe7Z1bbFVHmu//4H44woGnfbFJ1C3SJyMb4z1BHJgZJTLY4ZI4ysOo43ikBll+JO6Rmul45J4RCigtgWJ1OA/jRuIhbgNHc8BJFHWDiU2wiYd0bjCAjW2kCOJYiex96cmoGzv0y/H5vqpae9dae9netbGJCd9PWmLVutTlq6++S+1lsWKWgCAIggMrzb+CIAgFI4ZDEARnxHAIguCMGA5BEJxZMTGZls1RQRCckIhDEARnVvz3n6cl4hAEwQmJOARBcEYMhyAIzojhEATBGTEcgiA4I4ZDEARnxHAIguCMGA5BEJwRwyEIgjNiOARBcEYMhyAIzojhEATBGTEcgiA4I4ZDEARnivjr2AwGO46iP2OKigo0vtqASlOaj/TgUZxGA1pqIr5zH5lL6OgYQNoUo7V7rWcC7a9vwIGGCn1+sxsHTt3U50Rl4340mls2Y92v4RS1m33PmZs4dbAbsOv3tR1BXcteBIe1MLreMVMqvp7CYVkMVYfLKRSam1OjNN/UqbHuo0jT3OT6Z/pvz0kI3GZ//B9QPfx/A3qk8c/30sI62DHAnQjocECX7nUu5tJ1LYv7N97FokjDwYvGEqJa6MOoLkCwhRiOscFLiNQ8jagq+dsLvpNTfHpuMIOamuxKJiUeRiJo0EghqKtENVqKNBy8YIb4pHqvWXCBtlgep4CXWrwxFII2iJPPOCziAMUoobPhIPmx0VXyJuMebTFjVguNpqmlHP0DkbllGyabouS1CMzXLo9nuDpnAJWOT6KuQAcZZC5dz9OdB4TFSVUiT+OlWpDC2Ba6eCqzRoOJIBrLYNJ4pkwyg0gsJ/xIPIJMim9GLKPBRFAeySDt82g0SaQoddU0keaKM2rh1CJBCz1LJoNMpJxaNEQiiGQm7ScKgMfIfTbFIqhs2J9TTO7n4kyHj7SSNUP9hTXmCooyClD+9ChZ7eqK+2sgFgOeUxqzX58WgwrU1WbQT07vQaKk7V/+9YA5L5AZfPnZKLBhM360ylwiSkv/gpFPZ7Buyw9RyhfYYne8g4sfDNKRQnxblVKWmS8vYwRV2EIv2+dzk8HYxXGs3qLbi8ZL8EFnF74o24oNmW60f/xjNJNXUG36mMDH5+7g8XrdLsORQrJuL7ZhFBdTcWyrcl2lZHg6Unjm5a3A6CCSceoDV7Hqh1j9ZRc6L5agassqXOnowp0XqB2+x57q7ATuXqT751gWgxhZGTbmCErS7+HMp1yHkaGCPXsXvnzcyJvraz+Lu578udw5oeQ+wRFHyVbER4+i/cwEMiO6vSTLivrC0UXHW/raxRHdzgyPI5XCW295czWKlYG5Zdhjtv/2PXw2PmPqHUVmZhyfWfUrZibomVXYEirbDK6cGUW8dqu/fn5nBIFxB/pr6VDhMmVYfr/OPueNu5T1s/MyZsLGwGQCOpK5iQ++oPI23Ud/3wIy8+m+vhdNW7qu5tDoMFVf+u04em6vLkIfvzsWzXBg1Qy+OHcLq3lyWTC/X43m1j14fttWbNvwDU4b5Yaj4UgPdlGIV4umzUaotEjXrRxFz5n3SAkyqHxhD7aEyJuNxMiGBtR7ddNkdqRq8bOt9HBQKQoka3hUFZbhIKJVcSTPnUXPB5fxxapaNNabRcCLomcY8eZfoKmeZEHyuXvmKD5eE1BUIlpF99d8gnaldN5CYTm9h1ur9fPpy2eRXBXB+LdxJTcuj1A/ttG516ctmzajimR0529+gZ+9aN6jhd85/TwOvPwT6gM9bxYpv3OR5Ju9XjaOzk9K8mRT+qPNqu8r06tR/zLNa1kKI7EG/HPTc/5xzGs48o25IsRwcH/PPNKk6tf9GqW04hv9jINMx7p/jVt/u1/JgeupunsWHZ/SIt1K5Q0lGPlindLTPB1iHbnoGQY6+DkrpVFzxf0KykwZ8jt44dW9aFD39TrJ6nrpf5qUxzgWxTd+p/sAsHi/qljhOoej6cwAOg6+hgN88Eanc+hO8GKnPNPOl71c8cCr++nYi/ILZPkDYR4/w3l4Lp/UKUrjAnsa/J7qLx15YT71Ref2puzDy1O5T3Q8M0ljtzY5I9WozCpJBJXVXnoVggr5qQ7eKzh4FDy0Sgrtx4a5QxR9DUeQaKhGhMqcbgVTt3D4PUrRasPHz/VnoTn0LWob8rrD1H++zynLwu0Wi+5v9Xqr/gqSoa1DBcn0JoZGK5CwhhddX40oPVdQqsqbvDwXIZNu64q9iapSsdra8JQtSWviHvZJlhOLZjiUsSBFylrk2r1mcXuHo7A43LtQjhbfxpVeOHVZgxBBTWMtTUhOYXhCO5LkQW0jcXOYFjEvbmuiR6l+3y8Y1OeaXJ+DuqIWrnrHGBYKusZO0Xk3Xaf6M7ay0OJvXH+P+XDkadRRHWpvhxcNyXeMF26MzikvTsR0ObgwlgYO92ms7ACMDPiXCDX+jkvF7xc9KFTUog4D6PfsAzs01jFPtwvcWU6nytV+xinWmQecxTEcLMiBnEdjq46BAd+idCLUaHjQYrHkrix8XBuSUKPBeF7cnmjlTQo3ZrzxaNfRuJ6uNdK5aSttIgANL2gyop59y/AiN+dh3jQUXYfeLCXjQEZkaID8vYkO2MMOUzlDsp5rDDkPzB4ZGB4t1pKRgW7Zj5ZaqofHTJFe3fpatLAsnH4JCduwDiOkv2z87Q3ogmTKcsvXF9vBFYZ2UJkL2kjmNog1OhrUKN336UKOKM1dJTmnRtB6saNkiqTc+/Td8gPzryMZ9JMH6jclRFiJGnIDJ2/Z0qg9U5YFftvPQd7tAk0EedOOg2SNPMz7NS0NOnIwl1XbLawwN9Gvfo/ndtUdBUc+Lj9PFgUZppYUGS2rv7zAsgs6EsEke2ejK6pPeV3iiMgfAXEdXtfZUOh0S5c5Comc4p+pvQt+lAJ3UDhNXVLfs5DC1nVTHzzZKLk9bQqFkUkC5WQwvZSlRl92gBZHjHSHDELNAnPC0V9Yf3M6VohMaewNe5HmaIlkpyhYDwNwBBh7DacHK0ifKLqkufL6VknRZpRko2Ddf8bWff39h23cdZ9IX6B1kw1R1Di/BwX57xGWGt4sm+tbgYeRxZDH90qm3v7Yw/gdhyAUivLcA+S5/eH+w8pYd7d/f+wBQQyHcN/xfaj2kPOgykJSFUEQnJGIQxAEZ8RwCILgjBgOQRCcEcMhCIIzYjgEQXBGDIcgCM6I4RAEwRkxHIIgOCOGQxAEZ8RwCILgjBgOQRCcWTExmZa/VREEwYkVs4Q5FwRBKAhJVQRBcEYMhyAIzojhEATBGTEcgiA4I4ZDEARnxHAIguCMGA5BEJwRwyEIgjNiOARBcEYMhyAIzojhEATBGTEcgiA4I4ZDEARnivjr2BTOtx9BT8oUFVVobt+NhCnNR/L9I+jET9G2PeY795EawOH2PiRNMb5rn/VMoP3EbhzZU6XPb5zEvq4RfU4kmg6heYMpWAyd+CW1a73nzAg6W08Cdv2+tmOob92HHYFhLYyud8iUiq+ncFgWVzaGyykUmpvOIZpvmo+hE0eQpLlR/Zt3zvxwmz3l+r6ai+yAC9ejPFj+VzeGz6nVt7l0Yjljy2vZwIbDjeRs3+tvzPYlTZFJ9s8eeiVwbQ6mzr8xe+i8ftA+t7l+vn92ypwH2wu+c/142+ybw3xGz52/oa5pbsy++cqJ2eumlGX4xOyh43zYz7px/fgbs2/yodplAm2xPF63x1AIPE5vLMXBsgiT53zk5FcgJL+svF/PjXm+OfNhy4bO++y2qe6fFzsvc747T18eGObQ5e+QxUlVYrVo3gX09Oa8/b2Q2F6LuDlnrxsvS+ErE2EkJ1NUzlneeDlFLlN8M4Yd221vE8VjsTSSvsiIPHoXUL+R6jFXnCHP1omd2ESRT5ZUCsnYo7k+x6jPqa8d20jTGGPUZ1MsgsSeQzmvxP28oU8Xk+RU2pxRf5Eb83xzZpMcugZsrNLPkt7ssL0/y5Dmsui5WWYMnbCjx3uhCvW70uh5P0Sg3xElBwhzXiDTuP2HYeDJv8OPS80l4pFH7uLah9N44ql1eIQvcOjY/u/oPX+Bjims3ZlQyjJ9+2Nco2D06cdLfedzk8JQ322seUq3Fy8vQe9vjuHztduxMXUS+//jr/CPezboNn2MY/DdP+GJv9ftMhxaTz77T3iWprN3qhzP/rXrKiXD0z6F+le2U2UXMFlOfeAqStdhze1j+Le+Emx8qhQftR/Dn16kdvgeh8nvjOPbPrr/LsviAq6tDBtzDCXJ36H7Q67DyFDBqdkx3H7CyJvrO/AuvvXkz+XfjCu53+aQtmQ71g4dwf63x5G8rtubZFlRXzjkPXxSX+u9rtuZ5nFMTeH4SW+uhlESmFuG08r9R3+HS7emTb1DSE7fwiWr/hz+OcuRwkdvD2Ptru159Su++BBv3/mf+AnPS4jcepP2nHFadwTHVZ+pD7PkQBCcU37mGC5NT+PzP5j3y0eo3hmsIRmxLLy58MnG0tewfkyuTSDT9at55pPn7Ffovp3GNV99+np2PGYOeK5Zvt2376L36DG8rd7xz8MjM7fw9udritDZJcJEHg7MFfpZ4VQwVLfKhaQqNvxMMARV115pU8dcYXZe2G6HskWGxHZYnx/i8/h1n34eHLsvjVsgJeG+qXqsNMBqi8f+JqdaITLMe85qI0yODL/juz6vbKjvx83Y6Lm55m6utuYPufmeJadQueXKQfnnjSNLQF9Vvf53bRkqWAZWOuXrR2g5bEzcrv96sM+2nNR5nt5Y73PZvv8ds3i/qljhOoejyVQfDrf+Evv44I0p59CdoKjl8NUn0WZteHkbqkfaD9GxD4+dI08RCOH0M7utzSSdojQvsBnK76n+0pEX5qsUZfccG2vs2a5ik+oTHc99TWO3wtTYk0hkHUUMCXLPOr0KYcNuXUfro+ghj3qeHktQaD90ldNA8uRXo9i0ZyPiVGZ5BlO3cPg9StF2hY+f689ip1xBUiO4wmkInXLKEtpuyJwtDHti3mwObAQH5BYvM6ck7ytDVdhkzYVvDAsR24n67LtaNptyDdEcbETC1le7H5yGBsvmdH7y+xxPPOlLzeJeCsfE6Nm8VHv5sGiGQxkLUiRv4Lyrrhe3dzjulnOqc+5RtLXaubNeOPVZgxDDjqadwKSXd+vFf3hyp393/cZVWsS8uI0h418/hqh+3y8Y1OftuT4HDYRauOodY1joxaEuOj9B16n+5K6dufHR4m9O3OOkU/5fnzD7BKzIpN1DvHDL6Jxy3k1l13Q5oIxLAy9sGis7ACODw700Fzz+9oHcAguds4Xguo/gq+cevF87HmYWx3Cwl+nNeTS2pOjtK35jaF4FpMViRQNqs608qs/DjAbjeXHvaKL7/DOugzHjjUe7jmZ6kX/a89pKmghAwws6Sp7JFFO8yM15mIcLhevwNkvJOJAhutJ7TXklJrExSmUyWAk2JOHkohqOckD1FWvJyEC3HkLbLqqHx0yRXn1iJ9pYFt4cFWQ0ghvWxRoNrsevBzoiK4YQ2bCjmS/yKhh7rDyH+bprO1ufDqnozopsOAKynv2u+YH515EUesgD9ZgSh35ttAizgyJv2dakPVMW+3uLeSFlOkdKQII73NpnrhHm/R2tu3XkYC6rtltZuiPoIS8IcLvqjmK+7wkWDTJMbVNktKz+8gLLLuhYFF+xdzZKpPqU1yWOiPwRENfhhe5sKHS6pcschcS7OLzfbS74UcabFuU+Mujq2wWKpupPUB882Si51ZpCYSQngcd4UCZl2aEvE/PPWQ5S/DLSHVqkO3hObvTp73FYNvoBwny7YkrhsCHz60GCIr449a8YONIMk829LVJtkA6rdWK+T9mzD0mO3GgeFQH5xMu+VmPSxkPLIWtUODU0DnI5IP89wlLDu/K84O9ZEb8niDxC8fbuwp2ct4dW5MdxS4B8ci7cX3jvpqwPncvom4TlDn8P4ttDWwaI4RDuO74P1YQFWY7yklRFEARnJOIQBMEZMRyCIDgjhkMQBGfEcAiC4IwYDkEQnBHDIQiCM2I4BEFwRgyHIAjOiOEQBMEZMRyCIDgjhkMQBGdWTEym5W9VBEFwYsV//3laDIcgCE5IqiIIgjNiOARBcEYMhyAIzojhEATBGTEcgiA4I4ZDEARnxHAIguCMGA5BEJwRwyEIgjNiOARBcEYMhyAIzojhEATBGTEcgiA4U8Rfx2Yw2HEU/RlTVFSg8dUGVJrSfKQHj+I0GtBSE/Gd+8hcQkfHANKmGK3daz0TaH99Aw40VOjzm904cOqmPicqG/ej0dyyGet+Daeo3ex7ztzEqYPdgF2/r+0I6lr2IjishdH1jplS8fUUDstiqDpcTqHQ3JwapfmmTo11H0Wa5kb1LyB7/5z54Tb743wfAV0qXI80rAs8D+EyUvM8SieRWrS0PI2ovvyAwLowgPIlnv9iKWn7l389YM4LZAZffjaOdc2/QFP9VmzbRseGb3C6/SzubtiMH60yj83BzJeXMYIqbKEH7XObscsT2Ny0B89z3duqcPdMN758XNedHuzCQLwJ/9z0nGo7PkqKV7IVGyKkRKOr0dT0E92nbXGMkPEpofd9CkMKfjoVQSni2FJV3IyMdXcjGaXOxDdTu3yFJrkjhWde3YsGJY+/4MypCazb8kNqp1B4EXThzgv78bMXjVy3LSxPG14op/+YL8/5yIwOIhln+ZkLCzHxCUZKedwZjF1MIWrkO5YpQcOLnux5zo7i4zUh9ZLhOf3pOrxERrs0M4GZDT9Bg6dHZaPoOPUNqgqWG+siWYYwvaN57kjV4sDL1CeneVguRLChbBydn5RgW5F6upQsTqoSeRov1QL9AzmPcy9U1tjeIYJoLINJ45UyyQwisZwgI/EIMim+GUFNje02Iygn5U77IiNa4KeAumoyQOaKM6SQp1CLBC30LJkMMpFyatEQiSCSmbSfKAAeI/fZFIugsmF/zstzPxdnOnyklawZ6i9yY66s8Ms+Osd/rp4eHQaqK/T8RipQaY+XZPhgRQUhcEQ26Dbzc1JRi7rUABarusWkyIgj38qXlv4FI5/O5Lwsh64d7+DiB4N0pBA3nqmQiMMPe7ZxrN6i24vGS/BBZxe+KCNvlulG+8c/RjN7L/N0jgl8fO4OHq/PRRwcWifr9mIbRnExFS/CkpvI4uWtgO2pV/0Qq7/sQufFEvKWq3BFRQ7UDt/jtOvsBO5epPvnWBaDGFkZNuYIStLv4cynXIftIXUk4kVcqj47uuNyp45uJjgFoOiLo7D2MxPIjOj2kiwr6gtHJB1v6WsXR3Q7MzyOVApvveXN1ShWhnhwTivbf/sePhufMfWOIjMzjs+s+nPcRP9bKZTnRUwZXDkzinjt1rz6mfTls7hI+vA8z4uS2wxW01i4z57MvH7oMdzB/yB9XB3or3qGxk9WKjuembNHMVZCkSDJsierjyzbX2fnxZMJy551ZeyP5PF/a+TC99Z8gvYQnc7COt95GZnxy+qZ7Dz71oItL9anm/gv1h1vXtK2XvIaeQ+3Vgfl+92zaIYDq2bwxblbWM3C5En//Wo0t5p0g1MZo9xwNBycmpwmD9+02UiOFum6laPoOUPKM5JB5Qt7sCVEqDzxIxsaUO/VTZPHoevPttLDmeIMR9bwqCosw0FEq+JInjtLSnkZX6yqRWO9WfwzE/isZxjxbGo3dxgfraL7WeX0FNOvPLy4kqsiGP+WUi0aG5dHqB/b6Nzr05ZNm1FFMrrzN79QaY96jxZT5/TzOnTnOTELhN+5SPLNXp8jPC790WbV95Xp1ah/mea1LIWRWINKGb1x5AzT/6O0rQn/K29a8425NoS8mAcxvo5SUJKbQsntLP5cp1M3pSP07G/74zm9evwbfMByMk7FQ/WV+ndxlsf1nLqXGSWjfGOdeVe3P9b9a9z621xqWHX3LDo+Xa3Grp6fzsklzovbS324nH4H/cG0MFKl2vXk4vXZtxZUCt2N/1LrJ4MR0pk7ZoyqXjKUvnTzj6P4bHqdv51lwOL9qmKF6xyOpjMD6Dj4Gg7wwRudzqE7wYt9uBot1iamt6F64NX9dOxF+QVS1kAsx8/w5mduc06nKI0LbIbye6q/dOSF+dQXrjN8E5HqPziMhOoTHc9M0titTc5ItRWSR1BZ7aVXIVSYsbWUo//gURWmVlJoPzbMHaLoaziCREM1IlTmdCuYuoXD71GKVhs+fq4/y3zpQuYmhjkNoVNOWYLtcqqk56UaQ2EyDIPS3BYjt5fAnvlSLo2MUKhudc2X5jCU6pAoC6byGTsFvomh0QokrPqj66sRpXF57dty4ZQ4WC6EvD6D2lyfS71V2eoDt5GmOV3uLJrhUMaCFMkTEO+qayXyDpfdcoLDuwvlgd1wvXDqsgYhgprGWsASNC/+jiR5BttI3BymRcyL2xgy1uhRqt/3Cwb1uSbX56CBUAtXvWMMCwVdY6fovJuuU/2Z2trc+GjxN5Jy+PdXHKEFVecpWAUZHpLvGC/cGJ2zssV0Oaj8SwOH9DRWdgBGBh0DNBc8fnuhZ6lAIwlQG7vCidY0oI5M09jyXzcPPYtjODgyGMh5NLbcGBjwLUonQo2GBy0WSx+VRTfWP9RoMJ4X9w62CvwzroMxy3lTfTSup2uNdG7aSpsIQMMLmoyoZ98y9mLQ3r96/UIeS9ehN0u1lxoaIH9vvB5HLcNUzpCs5xpDLqphbwkMjxa7IslAt+xHSy3Vw2OmSK9ufa2OFOb4mZONRjTPK4dtWFuwYcxYcgsQJcfkk7N63pw7wzLN1yXb+RWLHTGotRCiG7lNcH8fWG52ZFNYRHn/+YH515EM+skD9ZuS+p2cFmFW4Bx+NmrPlMX+3mJeyLtdIEmSUnQcJGvkYd6vaWnQkYO5rH+jZ8HeRD95QXC4e1DdUXDkM9f3BIsGGaaWFBktq7+8wLILOhLBJHtno0+qT3ld4ojIHwFxHV7X2VDodEuXOQqJnOJvGLwLfpTCdlDqRV1S37NQNFXXTX3wZGO+bXAhkwTKyWB6KUuNvkzk913NV57caVHGSHfIgNXQPWXo1Zx56O9W5jTmQTlzKsP9KZLKhr1IcyRFclUUrKPzwNEhzQvLWeserYVn7LUQ/DaH2hsO9CHbBTKyqXv7pW2pkP8eYanhzTFSipceuA+QlgiRh4W3NzZH5MuR93D1vRuzJUA+ORfuL7x3ExvA6eX4ccKygozKqcycG9rfNWI4hPuO70M1YQ748/vl+bk5I6mKIAjOSMQhCIIzYjgEQXBGDIcgCM6I4RAEwRkxHIIgOCOGQxAEZ8RwCILgjBgOQRCcEcMhCIIzYjgEQXBGDIcgCM6smJhMy9+qCILgxIpZwpwLgiAUhKQqgiA4I4ZDEARnxHAIguCMGA5BEJwRwyEIgjNiOARBcEYMhyAIzojhEATBGTEcgiA4I4ZDEARnxHAIguCMGA5BEJwRwyEIgjNF/HVsCufbj6AnZYqKKjS370bClOYj+f4RdOKnaNse8537SA3gcHsfkqYY37XPeibQfmI3juyp0uc3TmJf14g+JxJNh9C8wRQshk78ktq13nNmBJ2tJwG7fl/bMdS37sOOwLAWRtc7ZErF11M4LIsrG8PlFArNTecQzTfNx9CJI0jS3AT7x/N6+OqTaGutRdxcs+E2e8p5TnFPunS/yPV3CSfiQYMNhxvJ2b7X35jtS5oik+yfPfRK4NocTJ1/Y/bQef2gfW5z/Xz/7JQ5D7YXfOf68bbZN4f5jJ47f0Nd09yYffOVE7PXTSnL8InZQ8f5sJ914/rxN2bf5EO1ywTaYnm8bo+hEHic3liKg2URJs/5yMmvQEh+WXm/HiJfHjvJ9825xu+TTb4u8fz+/B7mZmmYQ5ceYhYnVYnVonkX0NOb8/b3QmK77aliiJel8JXxSsnJFJVzlj9eTpHLFN+MYcd2O4KI4rFYGkmfNyOP3gXUb6R6zBVnKLLoxE5sosgnSyqFZOzRXJ9j1OfU145tpGmMMeqzKRZBYs+hnFfkft7Qp4tJciptzqi/sMasoGiw6xo2bXx0zrEnh64BG6tCIxEmnngScZrPQmQ3dMKOzoglGjNHQfW70uh536dMDzUlBwhzXiDTuP2HYeDJv8OPS80l4pFH7uLah9N44ql1eIQvcOje/u/oPX+Bjims3ZlQyjJ9+2Nco0D06cdLfedzk8JQ322seUq3Fy8vQe9vjuHztduxMXUS+//jr/CPezboNn2MY/DdP+GJv9ftMhxaTz77T3iW1K13qhzP/rXrKiXD0z6F+lcoxh66gMly6gNXUboOa24fw7/1lWDjU6X4qP0Y/vQitcP3OO16Zxzf9tH9d1kWF3BtZdiYYyhJ/g7dH3IdRoYKTs2O4fYTRt5c34F38a0nfy7/ZlzJ/TaH1CXbsXboCPa/PY7kdd3eJMuK+sIh9+GT+lrvdd3ONI9jagrHT3pzNYySwNwynH7sP/o7XLo1beodQnL6Fi5Z9SffP0Yh/U/R9Hgal66TffCNg0nho7eHsXbXdlN/vi4lP3oX18qfwbOefHx65LXFMvkVum+ncU1dn8KqlRfwvxcas6WHYfMyuTaBTNevQufpkZlbePvzNUXozPcUE3k4kB9eaqxwLhiqW+VCUhWbsNBVXXulTR1zhdl5YTuF2Nl67HMH7LA+P8Tn8es+/Tw4dl8at0BKwn1T9eRCY7stHvubnGqFyDDvOauNMDky/I7v+ryyob4fN2Oj53zytec8OP9ZgiG/loU3l3zMWaeC3/dkye/604ewMefpgN1He15Cy1b9c47p4WTxflWxwnUOR5OpPhxu/SX28cEbnc6hO0HeRm2yWZuY3obqkfZDdOzDY+fIowRCSP3MbmszS6cozQtshvJ7qr905IW8HAZTneGbiLypeRWbVJ/oeO5rGrsVRseeRCLrqGJIkCvU6VUIG3brOlofRU/rEZynxxIU2g9d5TSQoq+rUWzasxFxKrM8g6lbOPwepWi7wsfP9WexU64gqRFc4dSRTjllybVrUpSm8M3Q+eENYCM3Oprxf0hfBvTY8tKaKmxK5NLW+dFj3pQTPMl2IxK2HtrzwullsGxOhXwWzXAoY0GK5AmbfwnxlEEfjjvlHKKeezSwM68XTn3WIMSwo2knMOnl3XrxH57c6f/F5MZVWsS8uI0h418/hqh+3y8Y1OftuT4HDYRauOodY1joxaEuOj9B16n+5K6dufHR4m9OBPdXHInVot5bJKzwtAqGeOGW0TkvoLJrujxE54X+IlI0nBrQWNkBGBkc7qW54PHzIud+kOPo4WdYPspRsOPQhs+F+HaSY4rHZi4Iy5LFMRwcGfTmPBpvcKG3z79x5UKo0fAgJbWiAeWVyqP6PMxoMJ4X944mus8/4zoYM954tOtophf5516vraSJADS8oKPkwUzRtxBCPGEoXIe3WcqeNo0rvdcQN9FBYmOUymSwEmxIwslFNRzlgOordjWSgaaooG0X1cNjpkivPrETbSwLniMycurcO1p30jW+H/ypNmzDOgBHrvQcy07pUZ5c7Q3k/LrmHTM7kPkiqvngSMVyjA87PzD/OqK9S48pQSnJ7pxQWZGatGfKYn9vMS/k3c6RFycvdri1z1wjzPs7WnfryMFcVm23siaNoIe8IMDtqjsK/zcgSwQZprYpMlpWf3mBZRd0LIqv2DsbHVZ9yusSR0T+CIjr8BYeGwqdbukyRyHxLv6WZLe54EctunZKvcigq+9ZKJqqP8ERgXlAya3WFAojOQk8xoMyKcsOfdkBWnhlpDu0mHdk5ySgS/QMf7uiZMd69JytR/Z3LdowHFbvmm8/ChxzMYtfpWbGQQny3yMsPbx7zwu+SIX93vFAysPbw1peH6Z9l8gn58L9hfduyvrQ+QB9E8Hfi/j2sASJOJYciTiE7yFiOARBcEZSFUEQnBHDIQiCM2I4BEFwRgyHIAjOiOEQBMEZMRyCIDgjhkMQBGfEcAiC4IwYDkEQnBHDIQiCM2I4BEFwZsXEZFr+VkUQBAeA/w95OyORzUs43wAAAABJRU5ErkJggg==;fontColor=#000000;" vertex="1" parent="1">
          <mxGeometry x="640" y="540" width="231.9" height="140" as="geometry" />
        </mxCell>
        <mxCell id="FTFHMwlyKDDVJCZQZc6m-9" value="Workstations" style="sketch=0;pointerEvents=1;shadow=0;dashed=0;html=1;strokeColor=none;fillColor=#505050;labelPosition=center;verticalLabelPosition=bottom;verticalAlign=top;outlineConnect=0;align=center;shape=mxgraph.office.devices.workstation_pc;fontColor=#000000;labelBackgroundColor=#FFFFFF;" vertex="1" parent="1">
          <mxGeometry x="190" y="405.5" width="53" height="59" as="geometry" />
        </mxCell>
        <mxCell id="FTFHMwlyKDDVJCZQZc6m-10" value="Keeler-DC16" style="image;aspect=fixed;perimeter=ellipsePerimeter;html=1;align=center;shadow=0;dashed=0;spacingTop=3;image=img/lib/active_directory/windows_server_2.svg;labelBackgroundColor=#FFFFFF;fontColor=#000000;" vertex="1" parent="1">
          <mxGeometry x="350" y="405.5" width="55.2" height="69" as="geometry" />
        </mxCell>
        <mxCell id="FTFHMwlyKDDVJCZQZc6m-14" value="Yealink Phones" style="image;aspect=fixed;perimeter=ellipsePerimeter;html=1;align=center;shadow=0;dashed=0;spacingTop=3;image=img/lib/active_directory/phone.svg;labelBackgroundColor=#FFFFFF;fontColor=#000000;" vertex="1" parent="1">
          <mxGeometry x="480" y="436" width="50" height="39.5" as="geometry" />
        </mxCell>
      </root>
    </mxGraphModel>
  </diagram>
</mxfile>
